STARTFONT 2.1
FONT -FontForge-Zen Loop-Book-R-Normal--32-320-72-72-P-102-ISO10646-1
SIZE 32 72 72
FONTBOUNDINGBOX 26 35 -3 -8
COMMENT "Generated by fontforge, http://fontforge.sourceforge.net"
COMMENT "Copyright 2021 The Zen-Loop Project Authors (https://github.com/googlefonts/zen-loop)"
STARTPROPERTIES 39
FOUNDRY "FontForge"
FAMILY_NAME "Zen Loop"
WEIGHT_NAME "Book"
SLANT "R"
SETWIDTH_NAME "Normal"
ADD_STYLE_NAME ""
PIXEL_SIZE 32
POINT_SIZE 320
RESOLUTION_X 72
RESOLUTION_Y 72
SPACING "P"
AVERAGE_WIDTH 102
CHARSET_REGISTRY "ISO10646"
CHARSET_ENCODING "1"
FONTNAME_REGISTRY ""
CHARSET_COLLECTIONS "ISO10646-1"
FONT_NAME "ZenLoop-Regular"
FACE_NAME "Zen Loop Regular"
COPYRIGHT "Copyright 2021 The Zen-Loop Project Authors (https://github.com/googlefonts/zen-loop)"
FONT_VERSION "1.000; ttfautohint (v1.8.3)"
FONT_ASCENT 26
FONT_DESCENT 6
UNDERLINE_POSITION -5
UNDERLINE_THICKNESS 1
X_HEIGHT 14
CAP_HEIGHT 21
RAW_ASCENT 800
RAW_DESCENT 200
NORM_SPACE 8
RELATIVE_WEIGHT 40
RELATIVE_SETWIDTH 50
SUPERSCRIPT_X 0
SUPERSCRIPT_Y 11
SUPERSCRIPT_SIZE 19
SUBSCRIPT_X 0
SUBSCRIPT_Y 2
SUBSCRIPT_SIZE 19
AVG_LOWERCASE_WIDTH 93
AVG_UPPERCASE_WIDTH 122
ENDPROPERTIES
CHARS 248
STARTCHAR CR
ENCODING 13
SWIDTH 600 0
DWIDTH 19 0
BBX 1 1 0 0
BITMAP
00
ENDCHAR
STARTCHAR space
ENCODING 32
SWIDTH 240 0
DWIDTH 8 0
BBX 1 1 0 0
BITMAP
00
ENDCHAR
STARTCHAR exclam
ENCODING 33
SWIDTH 141 0
DWIDTH 5 0
BBX 1 22 2 0
BITMAP
80
80
80
80
80
80
80
80
80
80
80
80
80
80
80
80
00
00
00
80
80
80
ENDCHAR
STARTCHAR quotedbl
ENCODING 34
SWIDTH 195 0
DWIDTH 6 0
BBX 3 6 2 16
BITMAP
A0
A0
A0
A0
A0
A0
ENDCHAR
STARTCHAR numbersign
ENCODING 35
SWIDTH 454 0
DWIDTH 15 0
BBX 13 22 1 0
BITMAP
0420
0420
0420
0820
0820
0840
0840
7FF8
1040
1040
1040
1080
1080
1080
FFF0
2080
2100
2100
2100
4100
4100
4100
ENDCHAR
STARTCHAR dollar
ENCODING 36
SWIDTH 356 0
DWIDTH 11 0
BBX 9 27 1 -2
BITMAP
0800
0800
0800
1E00
6900
4880
8880
8800
8800
4800
4800
2800
1800
0C00
0A00
0900
0880
0880
0880
8880
8880
8880
4900
3E00
0800
0800
0800
ENDCHAR
STARTCHAR percent
ENCODING 37
SWIDTH 470 0
DWIDTH 15 0
BBX 13 22 1 0
BITMAP
3820
4420
8420
8440
8240
8280
8480
4500
4500
3900
0200
0200
04E0
0510
0510
0908
0A08
1208
1108
2110
2110
20E0
ENDCHAR
STARTCHAR ampersand
ENCODING 38
SWIDTH 520 0
DWIDTH 17 0
BBX 15 22 1 0
BITMAP
0300
0480
0840
0840
0840
0880
0880
0900
0A00
0400
0C00
1418
2224
4220
4140
8140
80C0
8080
80C0
4120
4310
3C0E
ENDCHAR
STARTCHAR quotesingle
ENCODING 39
SWIDTH 121 0
DWIDTH 4 0
BBX 1 6 1 16
BITMAP
80
80
80
80
80
80
ENDCHAR
STARTCHAR parenleft
ENCODING 40
SWIDTH 233 0
DWIDTH 7 0
BBX 5 26 2 -2
BITMAP
08
10
20
20
20
40
40
40
80
80
80
80
80
80
80
80
80
80
40
40
40
20
20
20
10
08
ENDCHAR
STARTCHAR parenright
ENCODING 41
SWIDTH 233 0
DWIDTH 7 0
BBX 4 26 1 -2
BITMAP
80
80
40
40
20
20
20
10
10
10
10
10
10
10
10
10
10
10
10
20
20
20
40
40
80
80
ENDCHAR
STARTCHAR asterisk
ENCODING 42
SWIDTH 313 0
DWIDTH 10 0
BBX 8 7 1 15
BITMAP
08
08
89
7E
18
24
24
ENDCHAR
STARTCHAR plus
ENCODING 43
SWIDTH 577 0
DWIDTH 18 0
BBX 15 15 2 0
BITMAP
0100
0100
0100
0100
0100
0100
0100
FFFE
0100
0100
0100
0100
0100
0100
0100
ENDCHAR
STARTCHAR comma
ENCODING 44
SWIDTH 145 0
DWIDTH 5 0
BBX 2 6 1 -3
BITMAP
40
40
40
40
40
80
ENDCHAR
STARTCHAR hyphen
ENCODING 45
SWIDTH 286 0
DWIDTH 9 0
BBX 7 1 1 9
BITMAP
FE
ENDCHAR
STARTCHAR period
ENCODING 46
SWIDTH 181 0
DWIDTH 6 0
BBX 1 3 2 0
BITMAP
80
80
80
ENDCHAR
STARTCHAR slash
ENCODING 47
SWIDTH 292 0
DWIDTH 9 0
BBX 9 26 0 -2
BITMAP
0080
0080
0080
0100
0100
0100
0200
0200
0200
0400
0400
0400
0800
0800
0800
1000
1000
1000
2000
2000
2000
4000
4000
4000
8000
8000
ENDCHAR
STARTCHAR zero
ENCODING 48
SWIDTH 378 0
DWIDTH 12 0
BBX 10 22 1 0
BITMAP
1E00
2100
2100
4080
4080
4080
8040
8040
8040
8040
8040
8040
8040
8040
8040
8040
4080
4080
4080
2100
2100
1E00
ENDCHAR
STARTCHAR one
ENCODING 49
SWIDTH 303 0
DWIDTH 10 0
BBX 8 22 1 0
BITMAP
10
E8
08
08
08
08
08
08
08
08
08
08
08
08
08
08
08
08
08
08
08
FF
ENDCHAR
STARTCHAR two
ENCODING 50
SWIDTH 343 0
DWIDTH 11 0
BBX 9 22 1 0
BITMAP
3E00
4100
4100
8080
0080
0080
0080
0080
0100
0100
0200
0200
0400
0800
1000
2000
2000
4000
8000
8000
8000
FF80
ENDCHAR
STARTCHAR three
ENCODING 51
SWIDTH 377 0
DWIDTH 12 0
BBX 10 22 1 0
BITMAP
1E00
2100
4100
4080
0080
0080
0080
0080
0100
1D00
2700
3880
0080
0040
0040
0040
0040
0040
0080
8080
4100
3E00
ENDCHAR
STARTCHAR four
ENCODING 52
SWIDTH 389 0
DWIDTH 12 0
BBX 10 22 1 0
BITMAP
0100
0200
0200
0400
0400
0800
0800
1100
1100
2100
2100
2100
4100
4100
8100
FFC0
0100
0100
0100
0100
0100
0100
ENDCHAR
STARTCHAR five
ENCODING 53
SWIDTH 372 0
DWIDTH 12 0
BBX 10 23 1 0
BITMAP
00C0
3F00
2000
2000
2000
2000
2000
2000
2000
2000
3E00
6100
A080
A080
4040
0040
0040
0040
0040
0080
8080
4100
3E00
ENDCHAR
STARTCHAR six
ENCODING 54
SWIDTH 360 0
DWIDTH 12 0
BBX 10 22 1 0
BITMAP
0200
0400
0800
1000
1000
2000
2000
4000
4000
4000
8E00
B100
A080
8080
8040
8040
8040
8080
4080
4080
2100
1E00
ENDCHAR
STARTCHAR seven
ENCODING 55
SWIDTH 321 0
DWIDTH 10 0
BBX 8 22 1 0
BITMAP
FF
01
01
02
02
02
04
04
04
08
08
08
10
10
10
20
20
20
40
40
40
80
ENDCHAR
STARTCHAR eight
ENCODING 56
SWIDTH 377 0
DWIDTH 12 0
BBX 10 22 1 0
BITMAP
1E00
2100
4080
4080
4040
4080
4080
4080
2100
1200
0C00
1200
2100
4080
4040
8040
8040
8040
8040
4080
2100
1E00
ENDCHAR
STARTCHAR nine
ENCODING 57
SWIDTH 360 0
DWIDTH 12 0
BBX 9 22 1 0
BITMAP
1E00
6100
4100
8080
8080
8080
8080
8080
8080
8180
4280
3C80
0080
0080
0100
0100
0200
0200
0400
0800
0800
1000
ENDCHAR
STARTCHAR colon
ENCODING 58
SWIDTH 181 0
DWIDTH 6 0
BBX 1 15 2 0
BITMAP
80
80
80
00
00
00
00
00
00
00
00
00
80
80
80
ENDCHAR
STARTCHAR semicolon
ENCODING 59
SWIDTH 165 0
DWIDTH 5 0
BBX 2 18 1 -3
BITMAP
40
40
40
00
00
00
00
00
00
00
00
00
40
40
40
40
40
80
ENDCHAR
STARTCHAR less
ENCODING 60
SWIDTH 482 0
DWIDTH 15 0
BBX 12 13 2 1
BITMAP
0010
0060
0180
0600
1800
6000
8000
6000
1800
0600
0180
0060
0010
ENDCHAR
STARTCHAR equal
ENCODING 61
SWIDTH 577 0
DWIDTH 18 0
BBX 15 6 2 5
BITMAP
FFFE
0000
0000
0000
0000
FFFE
ENDCHAR
STARTCHAR greater
ENCODING 62
SWIDTH 482 0
DWIDTH 15 0
BBX 12 13 2 1
BITMAP
8000
4000
3000
0C00
0300
00C0
0030
0060
0180
0600
1800
6000
8000
ENDCHAR
STARTCHAR question
ENCODING 63
SWIDTH 300 0
DWIDTH 10 0
BBX 7 22 1 0
BITMAP
38
C4
82
02
02
02
04
04
08
08
10
20
20
20
20
10
00
00
00
10
10
10
ENDCHAR
STARTCHAR at
ENCODING 64
SWIDTH 748 0
DWIDTH 24 0
BBX 22 22 1 0
BITMAP
00FE00
070180
080040
100C20
201210
402208
404208
408204
808004
808004
810804
811404
822808
822808
423010
423020
423040
224F80
118000
080030
0700C0
00FE00
ENDCHAR
STARTCHAR A
ENCODING 65
SWIDTH 414 0
DWIDTH 13 0
BBX 13 22 0 0
BITMAP
0200
0200
0300
0500
0500
0500
0880
0880
0880
0840
1040
1040
1040
1FE0
2020
2020
2020
4010
4010
4010
4008
8008
ENDCHAR
STARTCHAR B
ENCODING 66
SWIDTH 375 0
DWIDTH 12 0
BBX 8 22 2 0
BITMAP
FC
82
82
81
81
81
81
81
81
B9
A6
9E
81
81
81
81
81
81
81
81
82
FC
ENDCHAR
STARTCHAR C
ENCODING 67
SWIDTH 366 0
DWIDTH 12 0
BBX 10 22 1 0
BITMAP
0F80
1040
2000
4000
4000
4000
8000
8000
8000
8000
8000
8000
8000
8000
8000
8000
4000
4000
4000
2000
1040
0F80
ENDCHAR
STARTCHAR D
ENCODING 68
SWIDTH 396 0
DWIDTH 13 0
BBX 9 22 2 0
BITMAP
FC00
8200
8100
8100
8080
8080
8080
8080
8080
8080
8080
8080
8080
8080
8080
8080
8080
8080
8100
8100
8200
FC00
ENDCHAR
STARTCHAR E
ENCODING 69
SWIDTH 309 0
DWIDTH 10 0
BBX 7 22 2 0
BITMAP
FE
80
80
80
80
80
80
80
80
80
FC
80
80
80
80
80
80
80
80
80
80
FE
ENDCHAR
STARTCHAR F
ENCODING 70
SWIDTH 299 0
DWIDTH 10 0
BBX 7 22 2 0
BITMAP
FE
80
80
80
80
80
80
80
80
80
FC
80
80
80
80
80
80
80
80
80
80
80
ENDCHAR
STARTCHAR G
ENCODING 71
SWIDTH 382 0
DWIDTH 12 0
BBX 10 22 1 0
BITMAP
0F80
1040
2000
4000
4000
4000
8000
8000
8000
8000
8000
8000
87C0
8040
8040
8040
4040
4040
4040
2040
1040
0F80
ENDCHAR
STARTCHAR H
ENCODING 72
SWIDTH 425 0
DWIDTH 14 0
BBX 10 22 2 0
BITMAP
8040
8040
8040
8040
8040
8040
8040
8040
8040
8040
FFC0
8040
8040
8040
8040
8040
8040
8040
8040
8040
8040
8040
ENDCHAR
STARTCHAR I
ENCODING 73
SWIDTH 141 0
DWIDTH 5 0
BBX 1 22 2 0
BITMAP
80
80
80
80
80
80
80
80
80
80
80
80
80
80
80
80
80
80
80
80
80
80
ENDCHAR
STARTCHAR J
ENCODING 74
SWIDTH 142 0
DWIDTH 5 0
BBX 6 28 -3 -6
BITMAP
04
04
04
04
04
04
04
04
04
04
04
04
04
04
04
04
04
04
04
04
04
04
04
04
04
08
10
E0
ENDCHAR
STARTCHAR K
ENCODING 75
SWIDTH 401 0
DWIDTH 13 0
BBX 12 22 0 0
BITMAP
1020
1020
1040
1080
1080
1080
1100
1100
1100
7E00
9500
F880
1080
1040
1040
1040
1020
1020
1020
1020
1020
1010
ENDCHAR
STARTCHAR L
ENCODING 76
SWIDTH 347 0
DWIDTH 11 0
BBX 8 22 2 0
BITMAP
80
80
80
80
80
80
80
80
80
80
80
80
80
80
80
80
80
80
80
80
80
FF
ENDCHAR
STARTCHAR M
ENCODING 77
SWIDTH 534 0
DWIDTH 17 0
BBX 15 22 1 0
BITMAP
2008
3018
2828
2444
4284
4104
4284
4284
4284
4284
4284
4104
4104
4284
4284
4284
4104
4002
8002
8002
8002
8002
ENDCHAR
STARTCHAR N
ENCODING 78
SWIDTH 422 0
DWIDTH 14 0
BBX 10 22 2 0
BITMAP
8040
8040
C040
C040
C040
A040
A040
9040
9040
8840
8840
8840
8440
8440
8240
8240
8140
8140
8140
80C0
80C0
8040
ENDCHAR
STARTCHAR O
ENCODING 79
SWIDTH 446 0
DWIDTH 14 0
BBX 12 22 1 0
BITMAP
0F00
10C0
2040
4020
4020
4010
8010
8010
8010
8010
8010
8010
8010
8010
8010
8010
4010
4020
4020
2040
10C0
0F00
ENDCHAR
STARTCHAR P
ENCODING 80
SWIDTH 341 0
DWIDTH 11 0
BBX 8 22 2 0
BITMAP
FC
82
82
81
81
81
81
81
81
82
84
F8
80
80
80
80
80
80
80
80
80
80
ENDCHAR
STARTCHAR Q
ENCODING 81
SWIDTH 446 0
DWIDTH 14 0
BBX 12 30 1 -8
BITMAP
0F00
10C0
2040
4020
4020
4010
8010
8010
8010
8010
8010
8010
8010
8010
E030
9050
4890
4520
4220
2540
1580
0F00
0500
0500
0200
0200
0600
0500
0500
0600
ENDCHAR
STARTCHAR R
ENCODING 82
SWIDTH 380 0
DWIDTH 12 0
BBX 11 22 0 0
BITMAP
3F00
2080
2040
2040
2040
2040
2040
2040
2040
7C80
A300
7D00
2080
2080
2040
2040
2040
2040
2020
2020
2020
2020
ENDCHAR
STARTCHAR S
ENCODING 83
SWIDTH 356 0
DWIDTH 11 0
BBX 9 22 1 0
BITMAP
1E00
6100
4080
8000
8000
8000
8000
4000
2000
1000
0800
0400
0200
0100
0080
0080
0080
8080
8080
8080
4100
3E00
ENDCHAR
STARTCHAR T
ENCODING 84
SWIDTH 377 0
DWIDTH 12 0
BBX 12 22 0 0
BITMAP
FFF0
0200
0200
0200
0200
0200
0200
0200
0200
0200
0200
0200
0200
0200
0200
0200
0200
0200
0200
0200
0200
0200
ENDCHAR
STARTCHAR U
ENCODING 85
SWIDTH 412 0
DWIDTH 13 0
BBX 10 22 2 0
BITMAP
8040
8040
8040
8040
8040
8040
8040
8040
8040
8040
8040
8040
8040
8040
8040
8040
8040
8040
8040
8080
4100
3E00
ENDCHAR
STARTCHAR V
ENCODING 86
SWIDTH 384 0
DWIDTH 12 0
BBX 12 22 0 0
BITMAP
8010
4010
4020
4020
4020
2020
2040
2040
2040
1040
1080
1080
1080
0880
0900
0900
0900
0500
0600
0600
0600
0200
ENDCHAR
STARTCHAR W
ENCODING 87
SWIDTH 534 0
DWIDTH 17 0
BBX 15 22 1 0
BITMAP
8002
8002
8002
8002
4002
4004
4004
4104
4284
4284
4284
4284
4284
4104
4104
4284
4284
4444
2824
2828
3018
2008
ENDCHAR
STARTCHAR X
ENCODING 88
SWIDTH 318 0
DWIDTH 10 0
BBX 10 22 0 0
BITMAP
4080
4080
2080
2100
2100
1200
1200
0A00
0C00
0C00
0400
0C00
0C00
1200
1200
1100
2100
2100
4080
4080
4040
8040
ENDCHAR
STARTCHAR Y
ENCODING 89
SWIDTH 370 0
DWIDTH 12 0
BBX 12 22 0 0
BITMAP
8010
4020
4020
2040
2040
2080
1080
1100
0900
0900
0600
0600
0400
0400
0400
0400
0400
0400
0400
0400
0400
0400
ENDCHAR
STARTCHAR Z
ENCODING 90
SWIDTH 309 0
DWIDTH 10 0
BBX 9 22 0 0
BITMAP
7F80
0080
0100
0100
0100
0200
0200
0200
0400
0400
0800
0800
0800
1000
1000
1000
2000
2000
4000
4000
4000
FF80
ENDCHAR
STARTCHAR bracketleft
ENCODING 91
SWIDTH 193 0
DWIDTH 6 0
BBX 4 26 2 -2
BITMAP
F0
80
80
80
80
80
80
80
80
80
80
80
80
80
80
80
80
80
80
80
80
80
80
80
80
F0
ENDCHAR
STARTCHAR backslash
ENCODING 92
SWIDTH 292 0
DWIDTH 9 0
BBX 9 26 0 -2
BITMAP
8000
8000
4000
4000
4000
2000
2000
2000
1000
1000
1000
0800
0800
0800
0400
0400
0400
0200
0200
0200
0100
0100
0100
0080
0080
0080
ENDCHAR
STARTCHAR bracketright
ENCODING 93
SWIDTH 193 0
DWIDTH 6 0
BBX 4 26 0 -2
BITMAP
F0
10
10
10
10
10
10
10
10
10
10
10
10
10
10
10
10
10
10
10
10
10
10
10
10
F0
ENDCHAR
STARTCHAR asciicircum
ENCODING 94
SWIDTH 416 0
DWIDTH 13 0
BBX 12 12 1 10
BITMAP
0400
0600
0A00
0900
1100
1080
2080
2040
4040
4020
8020
8010
ENDCHAR
STARTCHAR underscore
ENCODING 95
SWIDTH 556 0
DWIDTH 18 0
BBX 16 1 1 -1
BITMAP
FFFF
ENDCHAR
STARTCHAR grave
ENCODING 96
SWIDTH 201 0
DWIDTH 6 0
BBX 3 4 2 17
BITMAP
80
80
40
20
ENDCHAR
STARTCHAR a
ENCODING 97
SWIDTH 315 0
DWIDTH 10 0
BBX 8 15 1 0
BITMAP
3C
44
82
02
02
02
06
1A
22
42
82
82
82
8E
73
ENDCHAR
STARTCHAR b
ENCODING 98
SWIDTH 298 0
DWIDTH 10 0
BBX 6 22 2 0
BITMAP
80
80
80
80
80
80
80
F0
88
84
84
84
84
84
84
84
84
84
84
84
88
F0
ENDCHAR
STARTCHAR c
ENCODING 99
SWIDTH 275 0
DWIDTH 9 0
BBX 7 15 1 0
BITMAP
38
24
42
40
80
80
80
80
80
80
80
40
42
24
38
ENDCHAR
STARTCHAR d
ENCODING 100
SWIDTH 298 0
DWIDTH 10 0
BBX 7 22 1 0
BITMAP
02
02
02
02
02
02
02
3A
46
42
42
82
82
82
82
82
82
82
42
42
46
3A
ENDCHAR
STARTCHAR e
ENCODING 101
SWIDTH 285 0
DWIDTH 9 0
BBX 7 15 1 0
BITMAP
38
24
42
42
82
82
FE
80
80
80
80
40
42
24
18
ENDCHAR
STARTCHAR f
ENCODING 102
SWIDTH 178 0
DWIDTH 6 0
BBX 7 22 0 0
BITMAP
0E
10
10
20
20
20
20
FC
20
20
20
20
20
20
20
20
20
20
20
20
20
20
ENDCHAR
STARTCHAR g
ENCODING 103
SWIDTH 302 0
DWIDTH 10 0
BBX 10 23 0 -6
BITMAP
0100
0100
1E00
2200
2100
2100
4100
4100
4100
2100
2100
1200
1C00
2000
4000
3000
4F00
8080
8040
8040
8040
4080
3F00
ENDCHAR
STARTCHAR h
ENCODING 104
SWIDTH 307 0
DWIDTH 10 0
BBX 6 22 2 0
BITMAP
80
80
80
80
80
80
80
B8
C4
84
84
84
84
84
84
84
84
84
84
84
84
84
ENDCHAR
STARTCHAR i
ENCODING 105
SWIDTH 141 0
DWIDTH 5 0
BBX 1 21 2 0
BITMAP
80
80
80
80
00
00
80
80
80
80
80
80
80
80
80
80
80
80
80
80
80
ENDCHAR
STARTCHAR j
ENCODING 106
SWIDTH 141 0
DWIDTH 5 0
BBX 5 27 -2 -6
BITMAP
08
08
08
08
00
00
08
08
08
08
08
08
08
08
08
08
08
08
08
08
08
08
08
08
10
10
E0
ENDCHAR
STARTCHAR k
ENCODING 107
SWIDTH 287 0
DWIDTH 9 0
BBX 7 22 2 0
BITMAP
80
80
80
80
80
80
80
84
84
88
90
A0
A0
D0
90
90
88
88
84
84
84
82
ENDCHAR
STARTCHAR l
ENCODING 108
SWIDTH 141 0
DWIDTH 5 0
BBX 1 22 2 0
BITMAP
80
80
80
80
80
80
80
80
80
80
80
80
80
80
80
80
80
80
80
80
80
80
ENDCHAR
STARTCHAR m
ENCODING 109
SWIDTH 407 0
DWIDTH 13 0
BBX 9 15 2 0
BITMAP
8080
E180
9280
8C80
8880
8C80
9480
9480
9480
8880
8080
8080
8080
8080
8080
ENDCHAR
STARTCHAR n
ENCODING 110
SWIDTH 307 0
DWIDTH 10 0
BBX 6 15 2 0
BITMAP
B8
C4
84
84
84
84
84
84
84
84
84
84
84
84
84
ENDCHAR
STARTCHAR o
ENCODING 111
SWIDTH 309 0
DWIDTH 10 0
BBX 8 15 1 0
BITMAP
38
24
42
42
82
81
81
81
81
81
82
42
42
24
38
ENDCHAR
STARTCHAR p
ENCODING 112
SWIDTH 299 0
DWIDTH 10 0
BBX 8 23 0 -6
BITMAP
20
20
3C
E2
21
21
21
21
21
21
21
21
21
21
21
22
3C
20
20
20
20
20
20
ENDCHAR
STARTCHAR q
ENCODING 113
SWIDTH 286 0
DWIDTH 9 0
BBX 8 21 1 -6
BITMAP
3A
46
42
42
82
82
82
82
82
82
82
42
42
46
3A
02
02
02
02
02
01
ENDCHAR
STARTCHAR r
ENCODING 114
SWIDTH 277 0
DWIDTH 9 0
BBX 6 15 2 0
BITMAP
B8
C4
84
84
80
80
80
80
80
80
80
80
80
80
80
ENDCHAR
STARTCHAR s
ENCODING 115
SWIDTH 257 0
DWIDTH 8 0
BBX 6 15 1 0
BITMAP
38
44
80
80
80
40
20
10
08
04
04
04
84
84
78
ENDCHAR
STARTCHAR t
ENCODING 116
SWIDTH 207 0
DWIDTH 7 0
BBX 6 19 0 0
BITMAP
20
20
20
20
FC
20
20
20
20
20
20
20
20
20
20
20
20
10
0C
ENDCHAR
STARTCHAR u
ENCODING 117
SWIDTH 307 0
DWIDTH 10 0
BBX 6 15 2 0
BITMAP
84
84
84
84
84
84
84
84
84
84
84
84
84
8C
74
ENDCHAR
STARTCHAR v
ENCODING 118
SWIDTH 285 0
DWIDTH 9 0
BBX 8 15 1 0
BITMAP
81
82
82
82
82
44
44
44
44
28
28
28
28
10
10
ENDCHAR
STARTCHAR w
ENCODING 119
SWIDTH 396 0
DWIDTH 13 0
BBX 11 15 1 0
BITMAP
8020
8020
8020
8420
8A20
8A40
8A40
8A40
4440
4440
4C40
4A40
5140
60C0
40C0
ENDCHAR
STARTCHAR x
ENCODING 120
SWIDTH 244 0
DWIDTH 8 0
BBX 6 15 1 0
BITMAP
84
88
48
48
50
30
20
20
30
50
48
48
88
84
84
ENDCHAR
STARTCHAR y
ENCODING 121
SWIDTH 285 0
DWIDTH 9 0
BBX 9 21 0 -6
BITMAP
4080
4100
4100
4100
4100
2200
2200
2200
2200
1400
1400
1400
1400
0800
0800
0800
0800
1000
1000
1000
E000
ENDCHAR
STARTCHAR z
ENCODING 122
SWIDTH 233 0
DWIDTH 7 0
BBX 6 15 1 0
BITMAP
FC
04
08
08
10
10
10
20
20
40
40
40
80
80
FC
ENDCHAR
STARTCHAR braceleft
ENCODING 123
SWIDTH 306 0
DWIDTH 10 0
BBX 9 26 1 -2
BITMAP
0780
0400
0800
0800
0800
0800
0800
0800
0800
0800
0800
0800
E800
9000
E800
0800
0800
0800
0800
0800
0800
0800
0800
0800
0400
0780
ENDCHAR
STARTCHAR bar
ENCODING 124
SWIDTH 141 0
DWIDTH 5 0
BBX 1 26 2 -2
BITMAP
80
80
80
80
80
80
80
80
80
80
80
80
80
80
80
80
80
80
80
80
80
80
80
80
80
80
ENDCHAR
STARTCHAR braceright
ENCODING 125
SWIDTH 306 0
DWIDTH 10 0
BBX 9 26 0 -2
BITMAP
E000
1000
1000
1000
1000
1000
1000
1000
1000
1000
1000
0800
0F80
0880
0F80
1000
1000
1000
1000
1000
1000
1000
1000
1000
1000
F000
ENDCHAR
STARTCHAR asciitilde
ENCODING 126
SWIDTH 433 0
DWIDTH 14 0
BBX 12 3 1 7
BITMAP
3810
4620
81C0
ENDCHAR
STARTCHAR uni00A0
ENCODING 160
SWIDTH 240 0
DWIDTH 8 0
BBX 1 1 0 0
BITMAP
00
ENDCHAR
STARTCHAR exclamdown
ENCODING 161
SWIDTH 141 0
DWIDTH 5 0
BBX 1 22 2 -4
BITMAP
80
80
80
00
00
00
80
80
80
80
80
80
80
80
80
80
80
80
80
80
80
80
ENDCHAR
STARTCHAR cent
ENCODING 162
SWIDTH 275 0
DWIDTH 9 0
BBX 7 21 1 -3
BITMAP
10
10
10
10
3C
52
52
50
90
90
90
90
90
90
52
52
34
18
10
10
10
ENDCHAR
STARTCHAR sterling
ENCODING 163
SWIDTH 331 0
DWIDTH 11 0
BBX 10 22 0 0
BITMAP
1F00
2080
4080
4000
4000
4000
4000
4000
2000
1000
1000
7F00
0800
0800
0800
0800
0800
1000
1000
2000
4000
FFC0
ENDCHAR
STARTCHAR currency
ENCODING 164
SWIDTH 506 0
DWIDTH 16 0
BBX 13 13 2 3
BITMAP
8008
4F90
3060
4020
4020
4020
4010
4020
4020
2020
30E0
4F10
8008
ENDCHAR
STARTCHAR yen
ENCODING 165
SWIDTH 370 0
DWIDTH 12 0
BBX 12 22 0 0
BITMAP
8010
4020
4020
2040
2040
2080
1080
1080
0900
0900
0600
0600
0400
0400
3FC0
0400
0400
3FC0
0400
0400
0400
0400
ENDCHAR
STARTCHAR brokenbar
ENCODING 166
SWIDTH 141 0
DWIDTH 5 0
BBX 1 26 2 -2
BITMAP
80
80
80
80
80
80
80
80
80
80
80
00
00
00
00
80
80
80
80
80
80
80
80
80
80
80
ENDCHAR
STARTCHAR section
ENCODING 167
SWIDTH 303 0
DWIDTH 10 0
BBX 8 27 1 -3
BITMAP
3C
42
81
81
80
80
80
40
20
18
64
42
82
81
82
42
64
18
08
04
02
01
01
81
81
42
38
ENDCHAR
STARTCHAR dieresis
ENCODING 168
SWIDTH 241 0
DWIDTH 8 0
BBX 4 4 2 17
BITMAP
90
90
90
90
ENDCHAR
STARTCHAR copyright
ENCODING 169
SWIDTH 772 0
DWIDTH 25 0
BBX 22 22 1 0
BITMAP
00FE00
030180
0C0040
100020
203810
204408
408004
408004
808004
808004
808004
808004
808004
808004
408004
408004
204408
203810
100020
0C0040
030180
007E00
ENDCHAR
STARTCHAR ordfeminine
ENCODING 170
SWIDTH 231 0
DWIDTH 7 0
BBX 6 10 1 12
BITMAP
70
90
08
08
10
68
88
88
90
EC
ENDCHAR
STARTCHAR guillemotleft
ENCODING 171
SWIDTH 403 0
DWIDTH 13 0
BBX 11 12 1 3
BITMAP
0460
0840
1080
2100
4200
8400
4400
2200
2100
1080
0840
0420
ENDCHAR
STARTCHAR logicalnot
ENCODING 172
SWIDTH 557 0
DWIDTH 18 0
BBX 16 5 1 5
BITMAP
FFFF
0001
0001
0001
0001
ENDCHAR
STARTCHAR uni00AD
ENCODING 173
SWIDTH 286 0
DWIDTH 9 0
BBX 7 1 1 9
BITMAP
FE
ENDCHAR
STARTCHAR registered
ENCODING 174
SWIDTH 772 0
DWIDTH 25 0
BBX 22 22 1 0
BITMAP
00FE00
030180
0C0040
100020
207810
204408
404404
404404
804404
804404
804804
807804
804404
804404
404404
404204
204208
204210
100020
0C0040
030180
00FE00
ENDCHAR
STARTCHAR macron
ENCODING 175
SWIDTH 266 0
DWIDTH 9 0
BBX 5 1 2 18
BITMAP
F8
ENDCHAR
STARTCHAR degree
ENCODING 176
SWIDTH 350 0
DWIDTH 11 0
BBX 8 8 2 14
BITMAP
38
C6
82
81
81
82
46
38
ENDCHAR
STARTCHAR plusminus
ENCODING 177
SWIDTH 577 0
DWIDTH 18 0
BBX 15 15 2 0
BITMAP
0100
0100
0100
0100
0100
0100
FFFE
0100
0100
0100
0100
0100
0000
0000
FFFE
ENDCHAR
STARTCHAR uni00B2
ENCODING 178
SWIDTH 207 0
DWIDTH 7 0
BBX 5 10 1 12
BITMAP
70
90
08
10
10
20
20
40
80
F8
ENDCHAR
STARTCHAR uni00B3
ENCODING 179
SWIDTH 214 0
DWIDTH 7 0
BBX 5 10 1 12
BITMAP
70
90
10
10
20
10
08
08
90
70
ENDCHAR
STARTCHAR acute
ENCODING 180
SWIDTH 201 0
DWIDTH 6 0
BBX 3 4 2 17
BITMAP
20
40
40
80
ENDCHAR
STARTCHAR uni00B5
ENCODING 181
SWIDTH 335 0
DWIDTH 11 0
BBX 8 21 2 -6
BITMAP
84
84
84
84
84
84
84
84
84
84
84
84
84
84
FB
80
80
80
80
80
80
ENDCHAR
STARTCHAR paragraph
ENCODING 182
SWIDTH 471 0
DWIDTH 15 0
BBX 11 22 2 0
BITMAP
1F20
7F20
7F20
FF20
FF20
FF20
FF20
FF20
7F20
7F20
3F20
0120
0120
0120
0120
0120
0120
0120
0120
0120
0120
0120
ENDCHAR
STARTCHAR periodcentered
ENCODING 183
SWIDTH 181 0
DWIDTH 6 0
BBX 1 3 2 8
BITMAP
80
80
80
ENDCHAR
STARTCHAR cedilla
ENCODING 184
SWIDTH 232 0
DWIDTH 7 0
BBX 4 5 2 -5
BITMAP
40
E0
10
10
E0
ENDCHAR
STARTCHAR uni00B9
ENCODING 185
SWIDTH 176 0
DWIDTH 6 0
BBX 4 10 1 12
BITMAP
C0
40
40
40
40
40
40
40
40
F0
ENDCHAR
STARTCHAR ordmasculine
ENCODING 186
SWIDTH 201 0
DWIDTH 6 0
BBX 5 10 1 12
BITMAP
60
90
90
88
88
88
88
90
90
60
ENDCHAR
STARTCHAR guillemotright
ENCODING 187
SWIDTH 403 0
DWIDTH 13 0
BBX 11 12 1 4
BITMAP
8400
4200
2100
1100
0880
0440
0460
0840
1080
2100
4200
8400
ENDCHAR
STARTCHAR onequarter
ENCODING 188
SWIDTH 527 0
DWIDTH 17 0
BBX 13 22 2 0
BITMAP
C008
4010
4010
4020
4020
4040
4040
4080
4080
F100
0100
0200
0220
0420
0420
0850
0850
1090
1090
20F8
2010
4010
ENDCHAR
STARTCHAR onehalf
ENCODING 189
SWIDTH 540 0
DWIDTH 17 0
BBX 14 22 2 0
BITMAP
C008
4010
4010
4020
4020
4040
4040
4080
4080
F100
0100
0200
0238
0448
0404
0808
0808
1010
1010
2020
2040
407C
ENDCHAR
STARTCHAR threequarters
ENCODING 190
SWIDTH 517 0
DWIDTH 17 0
BBX 15 22 1 0
BITMAP
7004
9008
1008
1010
2010
1020
0820
0840
9040
7080
0080
0100
0108
0210
0210
0428
0428
0828
0848
107E
1008
2008
ENDCHAR
STARTCHAR questiondown
ENCODING 191
SWIDTH 300 0
DWIDTH 10 0
BBX 7 22 2 -4
BITMAP
10
10
10
00
00
00
10
10
08
10
10
10
20
40
40
80
80
80
80
82
84
78
ENDCHAR
STARTCHAR Agrave
ENCODING 192
SWIDTH 414 0
DWIDTH 13 0
BBX 13 26 0 0
BITMAP
0400
0400
0200
0000
0200
0200
0300
0500
0500
0500
0880
0880
0880
0840
1040
1040
1040
1FE0
2020
2020
2020
4010
4010
4010
4008
8008
ENDCHAR
STARTCHAR Aacute
ENCODING 193
SWIDTH 414 0
DWIDTH 13 0
BBX 13 26 0 0
BITMAP
0080
0100
0100
0000
0200
0200
0300
0500
0500
0500
0880
0880
0880
0840
1040
1040
1040
1FE0
2020
2020
2020
4010
4010
4010
4008
8008
ENDCHAR
STARTCHAR Acircumflex
ENCODING 194
SWIDTH 414 0
DWIDTH 13 0
BBX 13 27 0 0
BITMAP
0200
0300
0500
0880
0000
0200
0200
0300
0500
0500
0500
0880
0880
0880
0840
1040
1040
1040
1FE0
2020
2020
2020
4010
4010
4010
4008
8008
ENDCHAR
STARTCHAR Atilde
ENCODING 195
SWIDTH 414 0
DWIDTH 13 0
BBX 13 25 0 0
BITMAP
0E40
0980
0000
0200
0200
0300
0500
0500
0500
0880
0880
0880
0840
1040
1040
1040
1FE0
2020
2020
2020
4010
4010
4010
4008
8008
ENDCHAR
STARTCHAR Adieresis
ENCODING 196
SWIDTH 414 0
DWIDTH 13 0
BBX 13 26 0 0
BITMAP
0480
0480
0480
0000
0200
0200
0300
0500
0500
0500
0880
0880
0880
0840
1040
1040
1040
1FE0
2020
2020
2020
4010
4010
4010
4008
8008
ENDCHAR
STARTCHAR Aring
ENCODING 197
SWIDTH 414 0
DWIDTH 13 0
BBX 13 27 0 0
BITMAP
0300
0500
0500
0300
0000
0200
0200
0300
0500
0500
0500
0880
0880
0880
0840
1040
1040
1040
1FE0
2020
2020
2020
4010
4010
4010
4008
8008
ENDCHAR
STARTCHAR AE
ENCODING 198
SWIDTH 545 0
DWIDTH 17 0
BBX 16 22 0 0
BITMAP
007F
0040
00C0
00C0
00C0
0140
0140
0240
0240
0440
047F
0440
0840
0FC0
1040
1040
1040
2040
2040
4040
4040
807F
ENDCHAR
STARTCHAR Ccedilla
ENCODING 199
SWIDTH 366 0
DWIDTH 12 0
BBX 10 27 1 -5
BITMAP
0F80
1040
2000
4000
4000
4000
8000
8000
8000
8000
8000
8000
8000
8000
8000
8000
4000
4000
4000
2000
1040
0F80
0400
0600
0100
0900
0600
ENDCHAR
STARTCHAR Egrave
ENCODING 200
SWIDTH 309 0
DWIDTH 10 0
BBX 7 26 2 0
BITMAP
40
20
30
00
FE
80
80
80
80
80
80
80
80
80
FC
80
80
80
80
80
80
80
80
80
80
FE
ENDCHAR
STARTCHAR Eacute
ENCODING 201
SWIDTH 309 0
DWIDTH 10 0
BBX 7 26 2 0
BITMAP
08
08
10
00
FE
80
80
80
80
80
80
80
80
80
FC
80
80
80
80
80
80
80
80
80
80
FE
ENDCHAR
STARTCHAR Ecircumflex
ENCODING 202
SWIDTH 309 0
DWIDTH 10 0
BBX 7 27 2 0
BITMAP
10
30
48
44
00
FE
80
80
80
80
80
80
80
80
80
FC
80
80
80
80
80
80
80
80
80
80
FE
ENDCHAR
STARTCHAR Edieresis
ENCODING 203
SWIDTH 309 0
DWIDTH 10 0
BBX 7 26 2 0
BITMAP
48
48
48
00
FE
80
80
80
80
80
80
80
80
80
FC
80
80
80
80
80
80
80
80
80
80
FE
ENDCHAR
STARTCHAR Igrave
ENCODING 204
SWIDTH 141 0
DWIDTH 5 0
BBX 3 26 0 0
BITMAP
80
40
60
00
20
20
20
20
20
20
20
20
20
20
20
20
20
20
20
20
20
20
20
20
20
20
ENDCHAR
STARTCHAR Iacute
ENCODING 205
SWIDTH 141 0
DWIDTH 5 0
BBX 2 26 2 0
BITMAP
40
40
80
00
80
80
80
80
80
80
80
80
80
80
80
80
80
80
80
80
80
80
80
80
80
80
ENDCHAR
STARTCHAR Icircumflex
ENCODING 206
SWIDTH 141 0
DWIDTH 5 0
BBX 5 27 0 0
BITMAP
20
60
90
88
00
20
20
20
20
20
20
20
20
20
20
20
20
20
20
20
20
20
20
20
20
20
20
ENDCHAR
STARTCHAR Idieresis
ENCODING 207
SWIDTH 141 0
DWIDTH 5 0
BBX 4 26 0 0
BITMAP
90
90
90
00
20
20
20
20
20
20
20
20
20
20
20
20
20
20
20
20
20
20
20
20
20
20
ENDCHAR
STARTCHAR Eth
ENCODING 208
SWIDTH 396 0
DWIDTH 13 0
BBX 11 22 0 0
BITMAP
3F00
2080
2040
2040
2020
2020
2020
2020
2020
2020
2020
FC20
2020
2020
2020
2020
2020
2020
2040
2040
2080
3F00
ENDCHAR
STARTCHAR Ntilde
ENCODING 209
SWIDTH 422 0
DWIDTH 14 0
BBX 10 25 2 0
BITMAP
1900
2600
0000
8040
8040
C040
C040
C040
A040
A040
9040
9040
8840
8840
8840
8440
8440
8240
8240
8140
8140
8140
80C0
80C0
8040
ENDCHAR
STARTCHAR Ograve
ENCODING 210
SWIDTH 446 0
DWIDTH 14 0
BBX 12 26 1 0
BITMAP
0800
0400
0400
0000
0F00
10C0
2040
4020
4020
4010
8010
8010
8010
8010
8010
8010
8010
8010
8010
8010
4010
4020
4020
2040
10C0
0F00
ENDCHAR
STARTCHAR Oacute
ENCODING 211
SWIDTH 446 0
DWIDTH 14 0
BBX 12 26 1 0
BITMAP
0100
0100
0200
0000
0F00
10C0
2040
4020
4020
4010
8010
8010
8010
8010
8010
8010
8010
8010
8010
8010
4010
4020
4020
2040
10C0
0F00
ENDCHAR
STARTCHAR Ocircumflex
ENCODING 212
SWIDTH 446 0
DWIDTH 14 0
BBX 12 27 1 0
BITMAP
0200
0600
0900
0900
0000
0F00
10C0
2040
4020
4020
4010
8010
8010
8010
8010
8010
8010
8010
8010
8010
8010
4010
4020
4020
2040
10C0
0F00
ENDCHAR
STARTCHAR Otilde
ENCODING 213
SWIDTH 446 0
DWIDTH 14 0
BBX 12 25 1 0
BITMAP
0C80
1300
0000
0F00
10C0
2040
4020
4020
4010
8010
8010
8010
8010
8010
8010
8010
8010
8010
8010
4010
4020
4020
2040
10C0
0F00
ENDCHAR
STARTCHAR Odieresis
ENCODING 214
SWIDTH 446 0
DWIDTH 14 0
BBX 12 26 1 0
BITMAP
0900
0900
0900
0000
0F00
10C0
2040
4020
4020
4010
8010
8010
8010
8010
8010
8010
8010
8010
8010
8010
4010
4020
4020
2040
10C0
0F00
ENDCHAR
STARTCHAR multiply
ENCODING 215
SWIDTH 445 0
DWIDTH 14 0
BBX 12 11 1 2
BITMAP
C020
2040
1080
0900
0600
0600
0900
1080
2040
4020
8010
ENDCHAR
STARTCHAR Oslash
ENCODING 216
SWIDTH 446 0
DWIDTH 14 0
BBX 12 22 1 0
BITMAP
0F20
10A0
2040
4060
4060
4090
8090
8110
8110
8210
8210
8410
8410
8410
8810
8810
5010
5020
6020
2040
50C0
4F00
ENDCHAR
STARTCHAR Ugrave
ENCODING 217
SWIDTH 412 0
DWIDTH 13 0
BBX 10 26 2 0
BITMAP
1000
1000
0800
0000
8040
8040
8040
8040
8040
8040
8040
8040
8040
8040
8040
8040
8040
8040
8040
8040
8040
8040
8040
8080
4100
3E00
ENDCHAR
STARTCHAR Uacute
ENCODING 218
SWIDTH 412 0
DWIDTH 13 0
BBX 10 26 2 0
BITMAP
0200
0400
0C00
0000
8040
8040
8040
8040
8040
8040
8040
8040
8040
8040
8040
8040
8040
8040
8040
8040
8040
8040
8040
8080
4100
3E00
ENDCHAR
STARTCHAR Ucircumflex
ENCODING 219
SWIDTH 412 0
DWIDTH 13 0
BBX 10 27 2 0
BITMAP
0800
0C00
1400
2200
0000
8040
8040
8040
8040
8040
8040
8040
8040
8040
8040
8040
8040
8040
8040
8040
8040
8040
8040
8040
8080
4100
3E00
ENDCHAR
STARTCHAR Udieresis
ENCODING 220
SWIDTH 412 0
DWIDTH 13 0
BBX 10 26 2 0
BITMAP
1200
1200
1200
0000
8040
8040
8040
8040
8040
8040
8040
8040
8040
8040
8040
8040
8040
8040
8040
8040
8040
8040
8040
8080
4100
3E00
ENDCHAR
STARTCHAR Yacute
ENCODING 221
SWIDTH 370 0
DWIDTH 12 0
BBX 12 26 0 0
BITMAP
0100
0100
0200
0000
8010
4020
4020
2040
2040
2080
1080
1100
0900
0900
0600
0600
0400
0400
0400
0400
0400
0400
0400
0400
0400
0400
ENDCHAR
STARTCHAR Thorn
ENCODING 222
SWIDTH 341 0
DWIDTH 11 0
BBX 8 22 2 0
BITMAP
80
80
80
80
FC
82
82
81
81
81
81
81
81
82
84
F8
80
80
80
80
80
80
ENDCHAR
STARTCHAR germandbls
ENCODING 223
SWIDTH 327 0
DWIDTH 10 0
BBX 7 22 2 0
BITMAP
78
84
84
84
84
84
84
84
B4
CC
B4
82
82
82
82
82
82
82
82
84
84
F8
ENDCHAR
STARTCHAR agrave
ENCODING 224
SWIDTH 315 0
DWIDTH 10 0
BBX 8 21 1 0
BITMAP
20
20
10
08
00
00
3C
44
82
02
02
02
06
1A
22
42
82
82
82
8E
73
ENDCHAR
STARTCHAR aacute
ENCODING 225
SWIDTH 315 0
DWIDTH 10 0
BBX 8 21 1 0
BITMAP
04
04
08
10
00
00
3C
44
82
02
02
02
06
1A
22
42
82
82
82
8E
73
ENDCHAR
STARTCHAR acircumflex
ENCODING 226
SWIDTH 315 0
DWIDTH 10 0
BBX 8 20 1 0
BITMAP
10
18
24
42
00
3C
44
82
02
02
02
06
1A
22
42
82
82
82
8E
73
ENDCHAR
STARTCHAR atilde
ENCODING 227
SWIDTH 315 0
DWIDTH 10 0
BBX 8 19 1 0
BITMAP
32
4C
00
00
3C
44
82
02
02
02
06
1A
22
42
82
82
82
8E
73
ENDCHAR
STARTCHAR adieresis
ENCODING 228
SWIDTH 315 0
DWIDTH 10 0
BBX 8 21 1 0
BITMAP
24
24
24
24
00
00
3C
44
82
02
02
02
06
1A
22
42
82
82
82
8E
73
ENDCHAR
STARTCHAR aring
ENCODING 229
SWIDTH 315 0
DWIDTH 10 0
BBX 8 21 1 0
BITMAP
18
24
24
18
00
00
3C
44
82
02
02
02
06
1A
22
42
82
82
82
8E
73
ENDCHAR
STARTCHAR ae
ENCODING 230
SWIDTH 450 0
DWIDTH 14 0
BBX 12 15 1 0
BITMAP
3CE0
4510
8210
0210
0210
0210
0FF0
3200
4200
8200
8200
8200
8210
8510
78E0
ENDCHAR
STARTCHAR ccedilla
ENCODING 231
SWIDTH 275 0
DWIDTH 9 0
BBX 7 20 1 -5
BITMAP
38
24
42
40
80
80
80
80
80
80
80
40
42
24
38
10
18
24
24
18
ENDCHAR
STARTCHAR egrave
ENCODING 232
SWIDTH 285 0
DWIDTH 9 0
BBX 7 21 1 0
BITMAP
20
20
10
08
00
00
38
24
42
42
82
82
FE
80
80
80
80
40
42
24
18
ENDCHAR
STARTCHAR eacute
ENCODING 233
SWIDTH 285 0
DWIDTH 9 0
BBX 7 21 1 0
BITMAP
04
04
08
10
00
00
38
24
42
42
82
82
FE
80
80
80
80
40
42
24
18
ENDCHAR
STARTCHAR ecircumflex
ENCODING 234
SWIDTH 285 0
DWIDTH 9 0
BBX 7 20 1 0
BITMAP
10
18
24
42
00
38
24
42
42
82
82
FE
80
80
80
80
40
42
24
18
ENDCHAR
STARTCHAR edieresis
ENCODING 235
SWIDTH 285 0
DWIDTH 9 0
BBX 7 21 1 0
BITMAP
24
24
24
24
00
00
38
24
42
42
82
82
FE
80
80
80
80
40
42
24
18
ENDCHAR
STARTCHAR igrave
ENCODING 236
SWIDTH 141 0
DWIDTH 5 0
BBX 3 21 0 0
BITMAP
80
40
40
20
00
00
20
20
20
20
20
20
20
20
20
20
20
20
20
20
20
ENDCHAR
STARTCHAR iacute
ENCODING 237
SWIDTH 141 0
DWIDTH 5 0
BBX 2 21 2 0
BITMAP
40
40
80
80
00
00
80
80
80
80
80
80
80
80
80
80
80
80
80
80
80
ENDCHAR
STARTCHAR icircumflex
ENCODING 238
SWIDTH 141 0
DWIDTH 5 0
BBX 5 20 0 0
BITMAP
20
50
90
88
00
20
20
20
20
20
20
20
20
20
20
20
20
20
20
20
ENDCHAR
STARTCHAR idieresis
ENCODING 239
SWIDTH 141 0
DWIDTH 5 0
BBX 4 21 0 0
BITMAP
90
90
90
90
00
00
20
20
20
20
20
20
20
20
20
20
20
20
20
20
20
ENDCHAR
STARTCHAR eth
ENCODING 240
SWIDTH 319 0
DWIDTH 10 0
BBX 8 22 1 0
BITMAP
40
20
11
0E
34
04
02
1E
22
41
41
81
81
81
81
81
81
81
42
42
24
1C
ENDCHAR
STARTCHAR ntilde
ENCODING 241
SWIDTH 307 0
DWIDTH 10 0
BBX 6 19 2 0
BITMAP
64
98
00
00
B8
C4
84
84
84
84
84
84
84
84
84
84
84
84
84
ENDCHAR
STARTCHAR ograve
ENCODING 242
SWIDTH 309 0
DWIDTH 10 0
BBX 8 21 1 0
BITMAP
20
20
10
08
00
00
38
24
42
42
82
81
81
81
81
81
82
42
42
24
38
ENDCHAR
STARTCHAR oacute
ENCODING 243
SWIDTH 309 0
DWIDTH 10 0
BBX 8 21 1 0
BITMAP
04
04
08
10
00
00
38
24
42
42
82
81
81
81
81
81
82
42
42
24
38
ENDCHAR
STARTCHAR ocircumflex
ENCODING 244
SWIDTH 309 0
DWIDTH 10 0
BBX 8 20 1 0
BITMAP
18
18
24
42
00
38
24
42
42
82
81
81
81
81
81
82
42
42
24
38
ENDCHAR
STARTCHAR otilde
ENCODING 245
SWIDTH 309 0
DWIDTH 10 0
BBX 8 19 1 0
BITMAP
32
4C
00
00
38
24
42
42
82
81
81
81
81
81
82
42
42
24
38
ENDCHAR
STARTCHAR odieresis
ENCODING 246
SWIDTH 309 0
DWIDTH 10 0
BBX 8 21 1 0
BITMAP
24
24
24
24
00
00
38
24
42
42
82
81
81
81
81
81
82
42
42
24
38
ENDCHAR
STARTCHAR divide
ENCODING 247
SWIDTH 577 0
DWIDTH 18 0
BBX 15 15 2 0
BITMAP
0100
0100
0100
0000
0000
0000
0000
FFFE
0000
0000
0000
0000
0100
0100
0100
ENDCHAR
STARTCHAR oslash
ENCODING 248
SWIDTH 309 0
DWIDTH 10 0
BBX 8 15 1 0
BITMAP
3A
26
42
46
86
89
89
91
91
91
A2
62
42
64
98
ENDCHAR
STARTCHAR ugrave
ENCODING 249
SWIDTH 307 0
DWIDTH 10 0
BBX 6 21 2 0
BITMAP
40
40
20
10
00
00
84
84
84
84
84
84
84
84
84
84
84
84
84
8C
74
ENDCHAR
STARTCHAR uacute
ENCODING 250
SWIDTH 307 0
DWIDTH 10 0
BBX 6 21 2 0
BITMAP
08
08
10
20
00
00
84
84
84
84
84
84
84
84
84
84
84
84
84
8C
74
ENDCHAR
STARTCHAR ucircumflex
ENCODING 251
SWIDTH 307 0
DWIDTH 10 0
BBX 6 20 2 0
BITMAP
20
30
48
84
00
84
84
84
84
84
84
84
84
84
84
84
84
84
8C
74
ENDCHAR
STARTCHAR udieresis
ENCODING 252
SWIDTH 307 0
DWIDTH 10 0
BBX 6 21 2 0
BITMAP
48
48
48
48
00
00
84
84
84
84
84
84
84
84
84
84
84
84
84
8C
74
ENDCHAR
STARTCHAR yacute
ENCODING 253
SWIDTH 285 0
DWIDTH 9 0
BBX 9 27 0 -6
BITMAP
0200
0400
0400
0800
0000
0000
4080
4100
4100
4100
4100
2200
2200
2200
2200
1400
1400
1400
1400
0800
0800
0800
0800
1000
1000
1000
E000
ENDCHAR
STARTCHAR thorn
ENCODING 254
SWIDTH 299 0
DWIDTH 10 0
BBX 8 28 0 -6
BITMAP
20
20
20
20
20
20
20
3C
E2
21
21
21
21
21
21
21
21
21
21
21
22
3C
20
20
20
20
20
20
ENDCHAR
STARTCHAR ydieresis
ENCODING 255
SWIDTH 285 0
DWIDTH 9 0
BBX 9 27 0 -6
BITMAP
2200
2200
2200
2200
0000
0000
4080
4100
4100
4100
4100
2200
2200
2200
2200
1400
1400
1400
1400
0800
0800
0800
0800
1000
1000
1000
E000
ENDCHAR
STARTCHAR dotlessi
ENCODING 305
SWIDTH 141 0
DWIDTH 5 0
BBX 1 15 2 0
BITMAP
80
80
80
80
80
80
80
80
80
80
80
80
80
80
80
ENDCHAR
STARTCHAR OE
ENCODING 338
SWIDTH 505 0
DWIDTH 16 0
BBX 14 22 1 0
BITMAP
0FFC
1100
2100
4100
4100
4100
8100
8100
8100
8100
81FC
8100
8100
8100
8100
8100
4100
4100
4100
2100
1100
0FFC
ENDCHAR
STARTCHAR oe
ENCODING 339
SWIDTH 492 0
DWIDTH 16 0
BBX 14 15 1 0
BITMAP
1870
2488
4288
4304
8104
8104
81FC
8100
8100
8100
8100
4300
4284
2488
3870
ENDCHAR
STARTCHAR Wcircumflex
ENCODING 372
SWIDTH 534 0
DWIDTH 17 0
BBX 15 27 1 0
BITMAP
0100
0280
0280
0440
0000
8002
8002
8002
8002
4002
4004
4004
4104
4284
4284
4284
4284
4284
4104
4104
4284
4284
4444
2824
2828
3018
2008
ENDCHAR
STARTCHAR wcircumflex
ENCODING 373
SWIDTH 396 0
DWIDTH 13 0
BBX 11 20 1 0
BITMAP
0400
0A00
1200
1100
0000
8020
8020
8020
8420
8A20
8A40
8A40
8A40
4440
4440
4C40
4A40
5140
60C0
40C0
ENDCHAR
STARTCHAR Ycircumflex
ENCODING 374
SWIDTH 370 0
DWIDTH 12 0
BBX 12 27 0 0
BITMAP
0400
0600
0900
0900
0000
8010
4020
4020
2040
2040
2080
1080
1100
0900
0900
0600
0600
0400
0400
0400
0400
0400
0400
0400
0400
0400
0400
ENDCHAR
STARTCHAR ycircumflex
ENCODING 375
SWIDTH 285 0
DWIDTH 9 0
BBX 9 26 0 -6
BITMAP
0800
1400
1200
2200
0000
4080
4100
4100
4100
4100
2200
2200
2200
2200
1400
1400
1400
1400
0800
0800
0800
0800
1000
1000
1000
E000
ENDCHAR
STARTCHAR Ydieresis
ENCODING 376
SWIDTH 370 0
DWIDTH 12 0
BBX 12 26 0 0
BITMAP
0900
0900
0900
0000
8010
4020
4020
2040
2040
2080
1080
1100
0900
0900
0600
0600
0400
0400
0400
0400
0400
0400
0400
0400
0400
0400
ENDCHAR
STARTCHAR uni0237
ENCODING 567
SWIDTH 141 0
DWIDTH 5 0
BBX 5 21 -2 -6
BITMAP
08
08
08
08
08
08
08
08
08
08
08
08
08
08
08
08
08
08
10
10
E0
ENDCHAR
STARTCHAR circumflex
ENCODING 710
SWIDTH 280 0
DWIDTH 9 0
BBX 5 4 2 16
BITMAP
20
50
88
88
ENDCHAR
STARTCHAR ring
ENCODING 730
SWIDTH 238 0
DWIDTH 8 0
BBX 4 4 2 17
BITMAP
60
90
90
60
ENDCHAR
STARTCHAR tilde
ENCODING 732
SWIDTH 301 0
DWIDTH 10 0
BBX 6 2 2 17
BITMAP
E4
98
ENDCHAR
STARTCHAR gravecomb
ENCODING 768
SWIDTH 0 0
DWIDTH 0 0
BBX 3 4 2 17
BITMAP
80
80
40
20
ENDCHAR
STARTCHAR acutecomb
ENCODING 769
SWIDTH 0 0
DWIDTH 0 0
BBX 3 4 2 17
BITMAP
20
40
40
80
ENDCHAR
STARTCHAR uni0302
ENCODING 770
SWIDTH 0 0
DWIDTH 0 0
BBX 5 4 2 16
BITMAP
20
50
88
88
ENDCHAR
STARTCHAR tildecomb
ENCODING 771
SWIDTH 0 0
DWIDTH 0 0
BBX 6 2 2 17
BITMAP
E4
98
ENDCHAR
STARTCHAR uni0307
ENCODING 775
SWIDTH 0 0
DWIDTH 0 0
BBX 1 4 2 17
BITMAP
80
80
80
80
ENDCHAR
STARTCHAR uni0308
ENCODING 776
SWIDTH 0 0
DWIDTH 0 0
BBX 4 4 2 17
BITMAP
90
90
90
90
ENDCHAR
STARTCHAR uni030A
ENCODING 778
SWIDTH 0 0
DWIDTH 0 0
BBX 4 4 2 17
BITMAP
60
90
90
60
ENDCHAR
STARTCHAR uni0327
ENCODING 807
SWIDTH 0 0
DWIDTH 0 0
BBX 4 5 2 -5
BITMAP
40
E0
10
10
E0
ENDCHAR
STARTCHAR Wgrave
ENCODING 7808
SWIDTH 534 0
DWIDTH 17 0
BBX 15 26 1 0
BITMAP
0400
0200
0100
0000
8002
8002
8002
8002
4002
4004
4004
4104
4284
4284
4284
4284
4284
4104
4104
4284
4284
4444
2824
2828
3018
2008
ENDCHAR
STARTCHAR wgrave
ENCODING 7809
SWIDTH 396 0
DWIDTH 13 0
BBX 11 21 1 0
BITMAP
1000
0800
0800
0400
0000
0000
8020
8020
8020
8420
8A20
8A40
8A40
8A40
4440
4440
4C40
4A40
5140
60C0
40C0
ENDCHAR
STARTCHAR Wacute
ENCODING 7810
SWIDTH 534 0
DWIDTH 17 0
BBX 15 26 1 0
BITMAP
0040
0080
0180
0000
8002
8002
8002
8002
4002
4004
4004
4104
4284
4284
4284
4284
4284
4104
4104
4284
4284
4444
2824
2828
3018
2008
ENDCHAR
STARTCHAR wacute
ENCODING 7811
SWIDTH 396 0
DWIDTH 13 0
BBX 11 21 1 0
BITMAP
0200
0200
0400
0400
0000
0000
8020
8020
8020
8420
8A20
8A40
8A40
8A40
4440
4440
4C40
4A40
5140
60C0
40C0
ENDCHAR
STARTCHAR Wdieresis
ENCODING 7812
SWIDTH 534 0
DWIDTH 17 0
BBX 15 26 1 0
BITMAP
0280
0280
0280
0000
8002
8002
8002
8002
4002
4004
4004
4104
4284
4284
4284
4284
4284
4104
4104
4284
4284
4444
2824
2828
3018
2008
ENDCHAR
STARTCHAR wdieresis
ENCODING 7813
SWIDTH 396 0
DWIDTH 13 0
BBX 11 21 1 0
BITMAP
1200
1200
1200
1200
0000
0000
8020
8020
8020
8420
8A20
8A40
8A40
8A40
4440
4440
4C40
4A40
5140
60C0
40C0
ENDCHAR
STARTCHAR uni1E9E
ENCODING 7838
SWIDTH 375 0
DWIDTH 12 0
BBX 8 22 2 0
BITMAP
3C
42
82
81
81
81
81
82
9A
A6
A6
99
81
81
81
81
81
81
81
81
82
FC
ENDCHAR
STARTCHAR Ygrave
ENCODING 7922
SWIDTH 370 0
DWIDTH 12 0
BBX 12 26 0 0
BITMAP
0800
0800
0400
0000
8010
4020
4020
2040
2040
2080
1080
1100
0900
0900
0600
0600
0400
0400
0400
0400
0400
0400
0400
0400
0400
0400
ENDCHAR
STARTCHAR ygrave
ENCODING 7923
SWIDTH 285 0
DWIDTH 9 0
BBX 9 27 0 -6
BITMAP
1000
1000
0800
0800
0000
0000
4080
4100
4100
4100
4100
2200
2200
2200
2200
1400
1400
1400
1400
0800
0800
0800
0800
1000
1000
1000
E000
ENDCHAR
STARTCHAR endash
ENCODING 8211
SWIDTH 425 0
DWIDTH 14 0
BBX 11 1 1 7
BITMAP
FFE0
ENDCHAR
STARTCHAR emdash
ENCODING 8212
SWIDTH 770 0
DWIDTH 25 0
BBX 22 1 1 7
BITMAP
FFFFFC
ENDCHAR
STARTCHAR quoteleft
ENCODING 8216
SWIDTH 145 0
DWIDTH 5 0
BBX 2 6 2 16
BITMAP
C0
80
80
80
80
80
ENDCHAR
STARTCHAR quoteright
ENCODING 8217
SWIDTH 145 0
DWIDTH 5 0
BBX 2 6 1 16
BITMAP
40
40
40
40
40
80
ENDCHAR
STARTCHAR quotesinglbase
ENCODING 8218
SWIDTH 145 0
DWIDTH 5 0
BBX 2 6 1 -3
BITMAP
40
40
40
40
40
80
ENDCHAR
STARTCHAR quotedblleft
ENCODING 8220
SWIDTH 219 0
DWIDTH 7 0
BBX 4 6 2 16
BITMAP
D0
A0
A0
A0
A0
A0
ENDCHAR
STARTCHAR quotedblright
ENCODING 8221
SWIDTH 219 0
DWIDTH 7 0
BBX 4 6 1 16
BITMAP
50
50
50
50
50
B0
ENDCHAR
STARTCHAR quotedblbase
ENCODING 8222
SWIDTH 219 0
DWIDTH 7 0
BBX 4 6 1 -3
BITMAP
50
50
50
50
50
A0
ENDCHAR
STARTCHAR bullet
ENCODING 8226
SWIDTH 355 0
DWIDTH 11 0
BBX 7 7 2 8
BITMAP
3C
7E
FE
FE
FE
FE
7C
ENDCHAR
STARTCHAR ellipsis
ENCODING 8230
SWIDTH 651 0
DWIDTH 21 0
BBX 15 3 3 0
BITMAP
8102
8102
8102
ENDCHAR
STARTCHAR guilsinglleft
ENCODING 8249
SWIDTH 263 0
DWIDTH 8 0
BBX 6 12 1 3
BITMAP
04
08
10
20
40
80
40
20
20
10
08
04
ENDCHAR
STARTCHAR guilsinglright
ENCODING 8250
SWIDTH 263 0
DWIDTH 8 0
BBX 6 12 1 4
BITMAP
80
40
20
10
08
04
04
08
10
20
40
80
ENDCHAR
STARTCHAR fraction
ENCODING 8260
SWIDTH 152 0
DWIDTH 5 0
BBX 11 22 -3 0
BITMAP
0020
0020
0040
0040
0080
0080
0100
0100
0200
0200
0400
0400
0800
0800
1000
1000
2000
2000
4000
4000
8000
8000
ENDCHAR
STARTCHAR uni2074
ENCODING 8308
SWIDTH 247 0
DWIDTH 8 0
BBX 6 10 1 12
BITMAP
10
20
20
50
50
50
90
FC
10
10
ENDCHAR
STARTCHAR Euro
ENCODING 8364
SWIDTH 391 0
DWIDTH 13 0
BBX 11 22 0 0
BITMAP
03C0
0420
0800
1000
1000
2000
2000
2000
2000
FE00
2000
2000
FE00
2000
2000
2000
2000
1000
1000
0800
0420
03C0
ENDCHAR
STARTCHAR trademark
ENCODING 8482
SWIDTH 506 0
DWIDTH 16 0
BBX 14 11 1 11
BITMAP
F90C
219C
2164
2164
2164
2124
2164
2164
2164
2104
2104
ENDCHAR
STARTCHAR minus
ENCODING 8722
SWIDTH 557 0
DWIDTH 18 0
BBX 16 1 1 9
BITMAP
FFFF
ENDCHAR
STARTCHAR uni2215
ENCODING 8725
SWIDTH 259 0
DWIDTH 8 0
BBX 8 23 0 0
BITMAP
01
01
01
02
02
02
04
04
04
08
08
08
10
10
10
20
20
20
40
40
40
80
80
ENDCHAR
STARTCHAR .notdef
ENCODING -1
SWIDTH 500 0
DWIDTH 16 0
BBX 12 29 2 -6
BITMAP
FFF0
FFF0
8010
8010
8010
8010
8010
8010
8010
8010
8010
8010
8010
8010
8010
8010
8010
8010
8010
8010
8010
8010
8010
8010
8010
8010
8010
FFF0
FFF0
ENDCHAR
STARTCHAR NULL
ENCODING -1
SWIDTH 600 0
DWIDTH 19 0
BBX 1 1 0 0
BITMAP
00
ENDCHAR
STARTCHAR acutecomb.case
ENCODING -1
SWIDTH 0 0
DWIDTH 0 0
BBX 2 3 2 23
BITMAP
40
40
80
ENDCHAR
STARTCHAR uni0302.case
ENCODING -1
SWIDTH 0 0
DWIDTH 0 0
BBX 5 4 2 23
BITMAP
20
60
90
88
ENDCHAR
STARTCHAR uni0308.case
ENCODING -1
SWIDTH 0 0
DWIDTH 0 0
BBX 3 3 2 23
BITMAP
A0
A0
A0
ENDCHAR
STARTCHAR uni0307.case
ENCODING -1
SWIDTH 0 0
DWIDTH 0 0
BBX 1 3 2 23
BITMAP
80
80
80
ENDCHAR
STARTCHAR gravecomb.case
ENCODING -1
SWIDTH 0 0
DWIDTH 0 0
BBX 2 3 2 23
BITMAP
80
80
40
ENDCHAR
STARTCHAR uni030A.case
ENCODING -1
SWIDTH 0 0
DWIDTH 0 0
BBX 3 4 2 23
BITMAP
60
A0
A0
60
ENDCHAR
STARTCHAR tildecomb.case
ENCODING -1
SWIDTH 0 0
DWIDTH 0 0
BBX 5 2 2 23
BITMAP
68
98
ENDCHAR
ENDFONT
